<mxfile host="65bd71144e">
    <diagram name="Página-1" id="W2U3Jv2BGPInB5Hn4fIP">
        <mxGraphModel dx="984" dy="984" grid="1" gridSize="10" guides="1" tooltips="1" connect="1" arrows="1" fold="1" page="1" pageScale="1" pageWidth="827" pageHeight="1169" math="0" shadow="0">
            <root>
                <mxCell id="0"/>
                <mxCell id="1" parent="0"/>
                <mxCell id="TY4uejiwIQo7nr5PJ_MQ-27" style="edgeStyle=orthogonalEdgeStyle;rounded=0;orthogonalLoop=1;jettySize=auto;html=1;endArrow=none;endFill=0;curved=1;fontFamily=Helvetica;fontSize=14;labelBackgroundColor=none;fontColor=default;" parent="1" target="TY4uejiwIQo7nr5PJ_MQ-26" edge="1">
                    <mxGeometry relative="1" as="geometry">
                        <mxPoint x="450" y="200" as="sourcePoint"/>
                    </mxGeometry>
                </mxCell>
                <mxCell id="TY4uejiwIQo7nr5PJ_MQ-7" style="edgeStyle=orthogonalEdgeStyle;curved=1;html=1;fontColor=default;endArrow=none;endFill=0;fontFamily=Helvetica;fontSize=14;labelBackgroundColor=none;" parent="1" source="TY4uejiwIQo7nr5PJ_MQ-8" target="TY4uejiwIQo7nr5PJ_MQ-19" edge="1">
                    <mxGeometry relative="1" as="geometry"/>
                </mxCell>
                <mxCell id="TY4uejiwIQo7nr5PJ_MQ-8" value="USUARIO_FINAL" style="whiteSpace=wrap;html=1;fontSize=14;shape=umlActor;verticalLabelPosition=bottom;verticalAlign=top;outlineConnect=0;fontFamily=Helvetica;labelBackgroundColor=none;fontColor=default;" parent="1" vertex="1">
                    <mxGeometry x="630" y="540" width="50" height="80" as="geometry"/>
                </mxCell>
                <mxCell id="TY4uejiwIQo7nr5PJ_MQ-9" style="edgeStyle=orthogonalEdgeStyle;curved=1;html=1;fontColor=default;endArrow=none;endFill=0;fontFamily=Helvetica;fontSize=14;labelBackgroundColor=none;" parent="1" source="TY4uejiwIQo7nr5PJ_MQ-11" target="TY4uejiwIQo7nr5PJ_MQ-20" edge="1">
                    <mxGeometry relative="1" as="geometry"/>
                </mxCell>
                <mxCell id="TY4uejiwIQo7nr5PJ_MQ-10" style="edgeStyle=orthogonalEdgeStyle;curved=1;html=1;fontColor=default;endArrow=none;endFill=0;fontFamily=Helvetica;fontSize=14;labelBackgroundColor=none;" parent="1" source="TY4uejiwIQo7nr5PJ_MQ-11" target="TY4uejiwIQo7nr5PJ_MQ-21" edge="1">
                    <mxGeometry relative="1" as="geometry"/>
                </mxCell>
                <mxCell id="TY4uejiwIQo7nr5PJ_MQ-11" value="DISEÑADOR_CONTENIDO" style="whiteSpace=wrap;html=1;fontSize=14;shape=umlActor;verticalLabelPosition=bottom;verticalAlign=top;outlineConnect=0;fontFamily=Helvetica;labelBackgroundColor=none;fontColor=default;" parent="1" vertex="1">
                    <mxGeometry x="890" y="240" width="50" height="80" as="geometry"/>
                </mxCell>
                <mxCell id="TY4uejiwIQo7nr5PJ_MQ-12" style="edgeStyle=orthogonalEdgeStyle;curved=1;html=1;fontColor=default;endArrow=none;endFill=0;fontFamily=Helvetica;fontSize=14;labelBackgroundColor=none;" parent="1" source="TY4uejiwIQo7nr5PJ_MQ-14" target="TY4uejiwIQo7nr5PJ_MQ-22" edge="1">
                    <mxGeometry relative="1" as="geometry"/>
                </mxCell>
                <mxCell id="TY4uejiwIQo7nr5PJ_MQ-13" style="edgeStyle=orthogonalEdgeStyle;curved=1;html=1;fontColor=default;endArrow=none;endFill=0;fontFamily=Helvetica;fontSize=14;labelBackgroundColor=none;" parent="1" source="TY4uejiwIQo7nr5PJ_MQ-14" target="TY4uejiwIQo7nr5PJ_MQ-23" edge="1">
                    <mxGeometry relative="1" as="geometry"/>
                </mxCell>
                <mxCell id="TY4uejiwIQo7nr5PJ_MQ-14" value="PERSONAL_FINANZAS" style="whiteSpace=wrap;html=1;fontSize=14;shape=umlActor;verticalLabelPosition=bottom;verticalAlign=top;outlineConnect=0;fontFamily=Helvetica;labelBackgroundColor=none;fontColor=default;" parent="1" vertex="1">
                    <mxGeometry x="220" y="530" width="50" height="80" as="geometry"/>
                </mxCell>
                <mxCell id="TY4uejiwIQo7nr5PJ_MQ-15" value="&lt;div style=&quot;line-height: 19px; font-size: 14px;&quot;&gt;&lt;div style=&quot;font-size: 14px;&quot;&gt;&lt;span class=&quot;hljs-keyword&quot; style=&quot;font-size: 14px;&quot;&gt;GRANT&lt;/span&gt; &lt;span class=&quot;hljs-keyword&quot; style=&quot;font-size: 14px;&quot;&gt;SELECT&lt;/span&gt;, &lt;span class=&quot;hljs-keyword&quot; style=&quot;font-size: 14px;&quot;&gt;INSERT&lt;/span&gt;, &lt;span class=&quot;hljs-keyword&quot; style=&quot;font-size: 14px;&quot;&gt;UPDATE&lt;/span&gt;, &lt;span class=&quot;hljs-keyword&quot; style=&quot;font-size: 14px;&quot;&gt;DELETE&lt;/span&gt; &lt;span class=&quot;hljs-keyword&quot; style=&quot;font-size: 14px;&quot;&gt;ON&lt;/span&gt; vista_usuarios_admin &lt;span class=&quot;hljs-keyword&quot; style=&quot;font-size: 14px;&quot;&gt;TO&lt;/span&gt; admin;&amp;nbsp;&lt;/div&gt;&lt;div style=&quot;font-size: 14px;&quot;&gt;&lt;span class=&quot;hljs-keyword&quot; style=&quot;font-size: 14px;&quot;&gt;GRANT&lt;/span&gt; &lt;span class=&quot;hljs-keyword&quot; style=&quot;font-size: 14px;&quot;&gt;SELECT&lt;/span&gt;, &lt;span class=&quot;hljs-keyword&quot; style=&quot;font-size: 14px;&quot;&gt;INSERT&lt;/span&gt;, &lt;span class=&quot;hljs-keyword&quot; style=&quot;font-size: 14px;&quot;&gt;UPDATE&lt;/span&gt;, &lt;span class=&quot;hljs-keyword&quot; style=&quot;font-size: 14px;&quot;&gt;DELETE&lt;/span&gt; &lt;span class=&quot;hljs-keyword&quot; style=&quot;font-size: 14px;&quot;&gt;ON&lt;/span&gt; vista_compras_admin &lt;span class=&quot;hljs-keyword&quot; style=&quot;font-size: 14px;&quot;&gt;TO&lt;/span&gt; admin;&amp;nbsp;&lt;/div&gt;&lt;div style=&quot;font-size: 14px;&quot;&gt;&lt;span class=&quot;hljs-keyword&quot; style=&quot;font-size: 14px;&quot;&gt;GRANT&lt;/span&gt; &lt;span class=&quot;hljs-keyword&quot; style=&quot;font-size: 14px;&quot;&gt;SELECT&lt;/span&gt;, &lt;span class=&quot;hljs-keyword&quot; style=&quot;font-size: 14px;&quot;&gt;INSERT&lt;/span&gt;, &lt;span class=&quot;hljs-keyword&quot; style=&quot;font-size: 14px;&quot;&gt;UPDATE&lt;/span&gt;, &lt;span class=&quot;hljs-keyword&quot; style=&quot;font-size: 14px;&quot;&gt;DELETE&lt;/span&gt; &lt;span class=&quot;hljs-keyword&quot; style=&quot;font-size: 14px;&quot;&gt;ON&lt;/span&gt; vista_billetera_admin &lt;span class=&quot;hljs-keyword&quot; style=&quot;font-size: 14px;&quot;&gt;TO&lt;/span&gt; admin;&lt;br style=&quot;font-size: 14px;&quot;&gt;&lt;/div&gt;&lt;/div&gt;" style="text;html=1;align=left;verticalAlign=middle;resizable=0;points=[];autosize=1;fontSize=14;fontFamily=Helvetica;labelBackgroundColor=none;fontColor=default;" parent="1" vertex="1">
                    <mxGeometry x="630" y="100" width="550" height="70" as="geometry"/>
                </mxCell>
                <mxCell id="TY4uejiwIQo7nr5PJ_MQ-16" value="&lt;div style=&quot;font-weight: normal; font-size: 14px; line-height: 19px;&quot;&gt;&lt;div style=&quot;font-size: 14px;&quot;&gt;&lt;span class=&quot;hljs-keyword&quot; style=&quot;font-size: 14px;&quot;&gt;GRANT&lt;/span&gt; &lt;span class=&quot;hljs-keyword&quot; style=&quot;font-size: 14px;&quot;&gt;SELECT&lt;/span&gt; &lt;span class=&quot;hljs-keyword&quot; style=&quot;font-size: 14px;&quot;&gt;ON&lt;/span&gt; vista_usuario_final &lt;span class=&quot;hljs-keyword&quot; style=&quot;font-size: 14px;&quot;&gt;TO&lt;/span&gt; usuario_final;&amp;nbsp;&lt;/div&gt;&lt;div style=&quot;font-size: 14px;&quot;&gt;&lt;span class=&quot;hljs-keyword&quot; style=&quot;font-size: 14px;&quot;&gt;GRANT&lt;/span&gt; &lt;span class=&quot;hljs-keyword&quot; style=&quot;font-size: 14px;&quot;&gt;UPDATE&lt;/span&gt; (password, genero, telefono) &lt;span class=&quot;hljs-keyword&quot; style=&quot;font-size: 14px;&quot;&gt;ON&lt;/span&gt; vista_actualizacion_usuario_final &lt;span class=&quot;hljs-keyword&quot; style=&quot;font-size: 14px;&quot;&gt;TO&lt;/span&gt; usuario_final;&lt;br style=&quot;font-size: 14px;&quot;&gt;&lt;/div&gt;&lt;/div&gt;" style="text;whiteSpace=wrap;html=1;fontFamily=Helvetica;fontSize=14;labelBackgroundColor=none;fontColor=default;" parent="1" vertex="1">
                    <mxGeometry x="640" y="660" width="380" height="100" as="geometry"/>
                </mxCell>
                <mxCell id="TY4uejiwIQo7nr5PJ_MQ-18" value="&lt;div style=&quot;font-weight: normal; font-size: 14px; line-height: 19px;&quot;&gt;&lt;div style=&quot;font-size: 14px;&quot;&gt;&lt;span class=&quot;hljs-keyword&quot; style=&quot;font-size: 14px;&quot;&gt;GRANT&lt;/span&gt; &lt;span class=&quot;hljs-keyword&quot; style=&quot;font-size: 14px;&quot;&gt;SELECT&lt;/span&gt; &lt;span class=&quot;hljs-keyword&quot; style=&quot;font-size: 14px;&quot;&gt;ON&lt;/span&gt; vista_billetera_finanzas &lt;span class=&quot;hljs-keyword&quot; style=&quot;font-size: 14px;&quot;&gt;TO&lt;/span&gt; personal_finanzas;&amp;nbsp;&lt;br style=&quot;font-size: 14px;&quot;&gt;&lt;/div&gt;&lt;/div&gt;" style="text;whiteSpace=wrap;html=1;fontFamily=Helvetica;fontSize=14;labelBackgroundColor=none;fontColor=default;" parent="1" vertex="1">
                    <mxGeometry x="50" y="770" width="220" height="60" as="geometry"/>
                </mxCell>
                <mxCell id="TY4uejiwIQo7nr5PJ_MQ-19" value="usuarios" style="shape=cylinder3;whiteSpace=wrap;html=1;boundedLbl=1;backgroundOutline=1;size=15;labelBackgroundColor=none;fontFamily=Helvetica;fontSize=14;fontColor=default;" parent="1" vertex="1">
                    <mxGeometry x="540" y="653" width="60" height="80" as="geometry"/>
                </mxCell>
                <mxCell id="TY4uejiwIQo7nr5PJ_MQ-20" value="apariencia" style="shape=cylinder3;whiteSpace=wrap;html=1;boundedLbl=1;backgroundOutline=1;size=15;labelBackgroundColor=none;fontFamily=Helvetica;fontSize=14;fontColor=default;" parent="1" vertex="1">
                    <mxGeometry x="760" y="373" width="60" height="80" as="geometry"/>
                </mxCell>
                <mxCell id="TY4uejiwIQo7nr5PJ_MQ-21" value="vestimenta" style="shape=cylinder3;whiteSpace=wrap;html=1;boundedLbl=1;backgroundOutline=1;size=15;labelBackgroundColor=none;fontFamily=Helvetica;fontSize=14;fontColor=default;" parent="1" vertex="1">
                    <mxGeometry x="1030" y="373" width="60" height="80" as="geometry"/>
                </mxCell>
                <mxCell id="TY4uejiwIQo7nr5PJ_MQ-22" value="billetera" style="shape=cylinder3;whiteSpace=wrap;html=1;boundedLbl=1;backgroundOutline=1;size=15;labelBackgroundColor=none;fontFamily=Helvetica;fontSize=14;fontColor=default;" parent="1" vertex="1">
                    <mxGeometry x="100" y="670" width="60" height="80" as="geometry"/>
                </mxCell>
                <mxCell id="TY4uejiwIQo7nr5PJ_MQ-23" value="compras" style="shape=cylinder3;whiteSpace=wrap;html=1;boundedLbl=1;backgroundOutline=1;size=15;labelBackgroundColor=none;fontFamily=Helvetica;fontSize=14;fontColor=default;" parent="1" vertex="1">
                    <mxGeometry x="330" y="670" width="60" height="80" as="geometry"/>
                </mxCell>
                <mxCell id="TY4uejiwIQo7nr5PJ_MQ-26" value="usuarios" style="shape=cylinder3;whiteSpace=wrap;html=1;boundedLbl=1;backgroundOutline=1;size=15;labelBackgroundColor=none;fontFamily=Helvetica;fontSize=14;fontColor=default;" parent="1" vertex="1">
                    <mxGeometry x="420" y="260" width="60" height="80" as="geometry"/>
                </mxCell>
                <mxCell id="TY4uejiwIQo7nr5PJ_MQ-30" style="edgeStyle=orthogonalEdgeStyle;rounded=0;orthogonalLoop=1;jettySize=auto;html=1;curved=1;endArrow=none;endFill=0;fontFamily=Helvetica;fontSize=14;labelBackgroundColor=none;fontColor=default;" parent="1" source="TY4uejiwIQo7nr5PJ_MQ-6" target="TY4uejiwIQo7nr5PJ_MQ-28" edge="1">
                    <mxGeometry relative="1" as="geometry"/>
                </mxCell>
                <mxCell id="TY4uejiwIQo7nr5PJ_MQ-31" style="edgeStyle=orthogonalEdgeStyle;shape=connector;curved=1;rounded=0;orthogonalLoop=1;jettySize=auto;html=1;align=center;verticalAlign=middle;fontFamily=Helvetica;fontSize=14;fontColor=default;labelBackgroundColor=none;endArrow=none;endFill=0;" parent="1" source="TY4uejiwIQo7nr5PJ_MQ-6" target="TY4uejiwIQo7nr5PJ_MQ-29" edge="1">
                    <mxGeometry relative="1" as="geometry"/>
                </mxCell>
                <mxCell id="TY4uejiwIQo7nr5PJ_MQ-6" value="ADMIN" style="whiteSpace=wrap;html=1;fontSize=14;shape=umlActor;verticalLabelPosition=bottom;verticalAlign=top;outlineConnect=0;fontFamily=Helvetica;labelBackgroundColor=none;fontColor=default;" parent="1" vertex="1">
                    <mxGeometry x="420" y="70" width="60" height="100" as="geometry"/>
                </mxCell>
                <mxCell id="TY4uejiwIQo7nr5PJ_MQ-28" value="compras" style="shape=cylinder3;whiteSpace=wrap;html=1;boundedLbl=1;backgroundOutline=1;size=15;labelBackgroundColor=none;fontFamily=Helvetica;fontSize=14;fontColor=default;" parent="1" vertex="1">
                    <mxGeometry x="580" y="260" width="60" height="80" as="geometry"/>
                </mxCell>
                <mxCell id="TY4uejiwIQo7nr5PJ_MQ-29" value="billetera" style="shape=cylinder3;whiteSpace=wrap;html=1;boundedLbl=1;backgroundOutline=1;size=15;labelBackgroundColor=none;fontFamily=Helvetica;fontSize=14;fontColor=default;" parent="1" vertex="1">
                    <mxGeometry x="270" y="260" width="60" height="80" as="geometry"/>
                </mxCell>
                <mxCell id="p6nE2YSOdPmh4IngsIS6-2" value="&lt;div style=&quot;font-size: 14px;&quot;&gt;GRANT SELECT, INSERT, UPDATE ON vista_apariencias TO disenador_contenido;&lt;/div&gt;" style="text;html=1;align=left;verticalAlign=middle;whiteSpace=wrap;rounded=0;fontFamily=Helvetica;fontSize=14;labelBackgroundColor=none;fontColor=default;" parent="1" vertex="1">
                    <mxGeometry x="1110" y="393" width="280" height="40" as="geometry"/>
                </mxCell>
                <mxCell id="p6nE2YSOdPmh4IngsIS6-3" value="&lt;span style=&quot;font-family: Helvetica; font-size: 14px; font-style: normal; font-variant-ligatures: normal; font-variant-caps: normal; font-weight: 400; letter-spacing: normal; orphans: 2; text-align: left; text-indent: 0px; text-transform: none; widows: 2; word-spacing: 0px; -webkit-text-stroke-width: 0px; white-space: normal; text-decoration-thickness: initial; text-decoration-style: initial; text-decoration-color: initial; float: none; display: inline !important;&quot;&gt;GRANT SELECT, INSERT, UPDATE ON vista_vestimenta TO disenador_contenido;&lt;/span&gt;" style="text;whiteSpace=wrap;html=1;fontSize=14;labelBackgroundColor=none;fontColor=default;" parent="1" vertex="1">
                    <mxGeometry x="720" y="470" width="280" height="40" as="geometry"/>
                </mxCell>
                <mxCell id="p6nE2YSOdPmh4IngsIS6-4" value="GRANT SELECT ON vista_compras_finanzas TO personal_finanzas;" style="text;html=1;align=left;verticalAlign=top;whiteSpace=wrap;rounded=0;labelBackgroundColor=none;fontSize=14;fontColor=default;" parent="1" vertex="1">
                    <mxGeometry x="300" y="770" width="260" height="60" as="geometry"/>
                </mxCell>
            </root>
        </mxGraphModel>
    </diagram>
</mxfile>